<svg width="103" height="90" viewBox="0 0 103 90" fill="none" xmlns="http://www.w3.org/2000/svg">
<rect width="103" height="90" rx="10" fill="#F5F5F5"/>
<g clip-path="url(#clip0_1_1682)">
<path d="M65.5833 16.6665H56.9167V18.8332H65.5833V41.5832H56.9167V43.7498H67.75V18.8332C67.75 18.2585 67.5217 17.7074 67.1154 17.3011C66.7091 16.8948 66.158 16.6665 65.5833 16.6665Z" fill="#444444"/>
<path d="M53.5367 11.25H38.63C38.0209 11.25 37.4367 11.492 37.006 11.9227C36.5753 12.3534 36.3333 12.9376 36.3333 13.5467V43.75H55.8333V13.5467C55.8333 12.9376 55.5914 12.3534 55.1607 11.9227C54.7299 11.492 54.1458 11.25 53.5367 11.25ZM53.6667 41.5833H50.4167V38.3333H41.75V41.5833H38.5V13.5467C38.5 13.5296 38.5034 13.5127 38.5099 13.4969C38.5164 13.4811 38.526 13.4668 38.5381 13.4547C38.5502 13.4427 38.5645 13.4331 38.5803 13.4266C38.596 13.42 38.6129 13.4167 38.63 13.4167H53.5367C53.5537 13.4167 53.5706 13.42 53.5864 13.4266C53.6022 13.4331 53.6165 13.4427 53.6286 13.4547C53.6407 13.4668 53.6502 13.4811 53.6568 13.4969C53.6633 13.5127 53.6667 13.5296 53.6667 13.5467V41.5833Z" fill="#444444"/>
<path d="M40.6667 16.6665H42.8333V18.8332H40.6667V16.6665Z" fill="#444444"/>
<path d="M45 16.6665H47.1667V18.8332H45V16.6665Z" fill="#444444"/>
<path d="M49.3333 16.6665H51.5V18.8332H49.3333V16.6665Z" fill="#444444"/>
<path d="M40.6667 22.0835H42.8333V24.2502H40.6667V22.0835Z" fill="#444444"/>
<path d="M45 22.0835H47.1667V24.2502H45V22.0835Z" fill="#444444"/>
<path d="M49.3333 22.0835H51.5V24.2502H49.3333V22.0835Z" fill="#444444"/>
<path d="M40.6667 27.5H42.8333V29.6667H40.6667V27.5Z" fill="#444444"/>
<path d="M45 27.5H47.1667V29.6667H45V27.5Z" fill="#444444"/>
<path d="M49.3333 27.5H51.5V29.6667H49.3333V27.5Z" fill="#444444"/>
<path d="M40.6667 32.9165H42.8333V35.0832H40.6667V32.9165Z" fill="#444444"/>
<path d="M45 32.9165H47.1667V35.0832H45V32.9165Z" fill="#444444"/>
<path d="M49.3333 32.9165H51.5V35.0832H49.3333V32.9165Z" fill="#444444"/>
<path d="M56.9167 22.0835H59.0833V24.2502H56.9167V22.0835Z" fill="#444444"/>
<path d="M61.25 22.0835H63.4167V24.2502H61.25V22.0835Z" fill="#444444"/>
<path d="M56.9167 27.5H59.0833V29.6667H56.9167V27.5Z" fill="#444444"/>
<path d="M61.25 27.5H63.4167V29.6667H61.25V27.5Z" fill="#444444"/>
<path d="M56.9167 32.9165H59.0833V35.0832H56.9167V32.9165Z" fill="#444444"/>
<path d="M61.25 32.9165H63.4167V35.0832H61.25V32.9165Z" fill="#444444"/>
</g>
<path d="M36.3584 56.8906V64H35.416V56.8906H36.3584ZM39.3369 60.0889V60.8604H36.1533V60.0889H39.3369ZM39.8203 56.8906V57.6621H36.1533V56.8906H39.8203ZM43.7559 63.0967V60.377C43.7559 60.1686 43.7135 59.988 43.6289 59.835C43.5475 59.6787 43.4238 59.5583 43.2578 59.4736C43.0918 59.389 42.8867 59.3467 42.6426 59.3467C42.4147 59.3467 42.2145 59.3857 42.042 59.4639C41.8727 59.542 41.7393 59.6445 41.6416 59.7715C41.5472 59.8984 41.5 60.0352 41.5 60.1816H40.5967C40.5967 59.9928 40.6455 59.8057 40.7432 59.6201C40.8408 59.4346 40.9808 59.2669 41.1631 59.1172C41.3486 58.9642 41.57 58.8438 41.8271 58.7559C42.0876 58.6647 42.3773 58.6191 42.6963 58.6191C43.0804 58.6191 43.4189 58.6842 43.7119 58.8145C44.0081 58.9447 44.2393 59.1416 44.4053 59.4053C44.5745 59.6657 44.6592 59.9928 44.6592 60.3867V62.8477C44.6592 63.0234 44.6738 63.2106 44.7031 63.4092C44.7357 63.6077 44.7829 63.7786 44.8447 63.9219V64H43.9023C43.8568 63.8958 43.821 63.7575 43.7949 63.585C43.7689 63.4092 43.7559 63.2464 43.7559 63.0967ZM43.9121 60.7969L43.9219 61.4316H43.0088C42.7516 61.4316 42.5221 61.4528 42.3203 61.4951C42.1185 61.5342 41.9492 61.5944 41.8125 61.6758C41.6758 61.7572 41.5716 61.8597 41.5 61.9834C41.4284 62.1038 41.3926 62.2454 41.3926 62.4082C41.3926 62.5742 41.43 62.7256 41.5049 62.8623C41.5798 62.999 41.6921 63.1081 41.8418 63.1895C41.9948 63.2676 42.182 63.3066 42.4033 63.3066C42.68 63.3066 42.9242 63.248 43.1357 63.1309C43.3473 63.0137 43.515 62.8704 43.6387 62.7012C43.7656 62.5319 43.834 62.3675 43.8438 62.208L44.2295 62.6426C44.2067 62.7793 44.1449 62.9307 44.0439 63.0967C43.943 63.2627 43.8079 63.4222 43.6387 63.5752C43.4727 63.7249 43.2741 63.8503 43.043 63.9512C42.8151 64.0488 42.5579 64.0977 42.2715 64.0977C41.9134 64.0977 41.5993 64.0277 41.3291 63.8877C41.0622 63.7477 40.8538 63.5605 40.7041 63.3262C40.5576 63.0885 40.4844 62.8232 40.4844 62.5303C40.4844 62.2471 40.5397 61.998 40.6504 61.7832C40.7611 61.5651 40.9206 61.3844 41.1289 61.2412C41.3372 61.0947 41.5879 60.984 41.8809 60.9092C42.1738 60.8343 42.501 60.7969 42.8623 60.7969H43.9121ZM48.1943 63.3555C48.4092 63.3555 48.6077 63.3115 48.79 63.2236C48.9723 63.1357 49.1221 63.0153 49.2393 62.8623C49.3564 62.7061 49.4232 62.5286 49.4395 62.3301H50.2988C50.2826 62.6426 50.1768 62.9339 49.9814 63.2041C49.7894 63.471 49.5371 63.6875 49.2246 63.8535C48.9121 64.0163 48.5687 64.0977 48.1943 64.0977C47.7972 64.0977 47.4505 64.0277 47.1543 63.8877C46.8613 63.7477 46.6172 63.5557 46.4219 63.3115C46.2298 63.0674 46.085 62.7874 45.9873 62.4717C45.8929 62.1527 45.8457 61.8158 45.8457 61.4609V61.2559C45.8457 60.901 45.8929 60.5658 45.9873 60.25C46.085 59.931 46.2298 59.6494 46.4219 59.4053C46.6172 59.1611 46.8613 58.9691 47.1543 58.8291C47.4505 58.6891 47.7972 58.6191 48.1943 58.6191C48.6077 58.6191 48.9691 58.7038 49.2783 58.873C49.5876 59.0391 49.8301 59.2669 50.0059 59.5566C50.1849 59.8431 50.2826 60.1686 50.2988 60.5332H49.4395C49.4232 60.3151 49.3613 60.1182 49.2539 59.9424C49.1497 59.7666 49.0065 59.6266 48.8242 59.5225C48.6452 59.415 48.4352 59.3613 48.1943 59.3613C47.9176 59.3613 47.6849 59.4167 47.4961 59.5273C47.3105 59.6348 47.1624 59.7812 47.0518 59.9668C46.9443 60.1491 46.8662 60.3525 46.8174 60.5771C46.7718 60.7985 46.749 61.0247 46.749 61.2559V61.4609C46.749 61.6921 46.7718 61.9199 46.8174 62.1445C46.863 62.3691 46.9395 62.5726 47.0469 62.7549C47.1576 62.9372 47.3057 63.0837 47.4912 63.1943C47.68 63.3018 47.9144 63.3555 48.1943 63.3555ZM52.2959 58.7168V64H51.3877V58.7168H52.2959ZM51.3193 57.3154C51.3193 57.1689 51.3633 57.0452 51.4512 56.9443C51.5423 56.8434 51.6758 56.793 51.8516 56.793C52.0241 56.793 52.1559 56.8434 52.2471 56.9443C52.3415 57.0452 52.3887 57.1689 52.3887 57.3154C52.3887 57.4554 52.3415 57.5758 52.2471 57.6768C52.1559 57.7744 52.0241 57.8232 51.8516 57.8232C51.6758 57.8232 51.5423 57.7744 51.4512 57.6768C51.3633 57.5758 51.3193 57.4554 51.3193 57.3154ZM54.7275 56.5V64H53.8193V56.5H54.7275ZM57.1592 58.7168V64H56.251V58.7168H57.1592ZM56.1826 57.3154C56.1826 57.1689 56.2266 57.0452 56.3145 56.9443C56.4056 56.8434 56.5391 56.793 56.7148 56.793C56.8874 56.793 57.0192 56.8434 57.1104 56.9443C57.2048 57.0452 57.252 57.1689 57.252 57.3154C57.252 57.4554 57.2048 57.5758 57.1104 57.6768C57.0192 57.7744 56.8874 57.8232 56.7148 57.8232C56.5391 57.8232 56.4056 57.7744 56.3145 57.6768C56.2266 57.5758 56.1826 57.4554 56.1826 57.3154ZM60.8213 58.7168V59.4102H57.9648V58.7168H60.8213ZM58.9316 57.4326H59.835V62.6914C59.835 62.8704 59.8626 63.0055 59.918 63.0967C59.9733 63.1878 60.0449 63.248 60.1328 63.2773C60.2207 63.3066 60.3151 63.3213 60.416 63.3213C60.4909 63.3213 60.569 63.3148 60.6504 63.3018C60.735 63.2855 60.7985 63.2725 60.8408 63.2627L60.8457 64C60.7741 64.0228 60.6797 64.0439 60.5625 64.0635C60.4486 64.0863 60.3102 64.0977 60.1475 64.0977C59.9261 64.0977 59.7227 64.0537 59.5371 63.9658C59.3516 63.8779 59.2035 63.7314 59.0928 63.5264C58.9854 63.318 58.9316 63.0381 58.9316 62.6865V57.4326ZM63.3652 63.4531L64.835 58.7168H65.8018L63.6826 64.8154C63.6338 64.9456 63.5687 65.0856 63.4873 65.2354C63.4092 65.3883 63.3083 65.5332 63.1846 65.6699C63.0609 65.8066 62.9111 65.9173 62.7354 66.002C62.5628 66.0898 62.3561 66.1338 62.1152 66.1338C62.0436 66.1338 61.9525 66.124 61.8418 66.1045C61.7311 66.085 61.653 66.0687 61.6074 66.0557L61.6025 65.3232C61.6286 65.3265 61.6693 65.3298 61.7246 65.333C61.7832 65.3395 61.8239 65.3428 61.8467 65.3428C62.0518 65.3428 62.2259 65.3151 62.3691 65.2598C62.5124 65.2077 62.6328 65.1182 62.7305 64.9912C62.8314 64.8675 62.9176 64.6966 62.9893 64.4785L63.3652 63.4531ZM62.2861 58.7168L63.6582 62.8184L63.8926 63.7705L63.2432 64.1025L61.2998 58.7168H62.2861ZM23.1602 70.8906H24.0732L26.4023 76.6865L28.7266 70.8906H29.6445L26.7539 78H26.041L23.1602 70.8906ZM22.8623 70.8906H23.668L23.7998 75.2266V78H22.8623V70.8906ZM29.1318 70.8906H29.9375V78H29V75.2266L29.1318 70.8906ZM34.5713 77.0967V74.377C34.5713 74.1686 34.529 73.988 34.4443 73.835C34.363 73.6787 34.2393 73.5583 34.0732 73.4736C33.9072 73.389 33.7021 73.3467 33.458 73.3467C33.2301 73.3467 33.0299 73.3857 32.8574 73.4639C32.6882 73.542 32.5547 73.6445 32.457 73.7715C32.3626 73.8984 32.3154 74.0352 32.3154 74.1816H31.4121C31.4121 73.9928 31.4609 73.8057 31.5586 73.6201C31.6562 73.4346 31.7962 73.2669 31.9785 73.1172C32.1641 72.9642 32.3854 72.8438 32.6426 72.7559C32.903 72.6647 33.1927 72.6191 33.5117 72.6191C33.8958 72.6191 34.2344 72.6842 34.5273 72.8145C34.8236 72.9447 35.0547 73.1416 35.2207 73.4053C35.39 73.6657 35.4746 73.9928 35.4746 74.3867V76.8477C35.4746 77.0234 35.4893 77.2106 35.5186 77.4092C35.5511 77.6077 35.5983 77.7786 35.6602 77.9219V78H34.7178C34.6722 77.8958 34.6364 77.7575 34.6104 77.585C34.5843 77.4092 34.5713 77.2464 34.5713 77.0967ZM34.7275 74.7969L34.7373 75.4316H33.8242C33.5671 75.4316 33.3376 75.4528 33.1357 75.4951C32.9339 75.5342 32.7646 75.5944 32.6279 75.6758C32.4912 75.7572 32.387 75.8597 32.3154 75.9834C32.2438 76.1038 32.208 76.2454 32.208 76.4082C32.208 76.5742 32.2454 76.7256 32.3203 76.8623C32.3952 76.999 32.5075 77.1081 32.6572 77.1895C32.8102 77.2676 32.9974 77.3066 33.2188 77.3066C33.4954 77.3066 33.7396 77.248 33.9512 77.1309C34.1628 77.0137 34.3304 76.8704 34.4541 76.7012C34.5811 76.5319 34.6494 76.3675 34.6592 76.208L35.0449 76.6426C35.0221 76.7793 34.9603 76.9307 34.8594 77.0967C34.7585 77.2627 34.6234 77.4222 34.4541 77.5752C34.2881 77.7249 34.0895 77.8503 33.8584 77.9512C33.6305 78.0488 33.3734 78.0977 33.0869 78.0977C32.7288 78.0977 32.4147 78.0277 32.1445 77.8877C31.8776 77.7477 31.6693 77.5605 31.5195 77.3262C31.373 77.0885 31.2998 76.8232 31.2998 76.5303C31.2998 76.2471 31.3551 75.998 31.4658 75.7832C31.5765 75.5651 31.736 75.3844 31.9443 75.2412C32.1527 75.0947 32.4033 74.984 32.6963 74.9092C32.9893 74.8343 33.3164 74.7969 33.6777 74.7969H34.7275ZM37.7988 73.8447V78H36.8955V72.7168H37.75L37.7988 73.8447ZM37.584 75.1582L37.208 75.1436C37.2113 74.7822 37.265 74.4486 37.3691 74.1426C37.4733 73.8333 37.6198 73.5648 37.8086 73.3369C37.9974 73.109 38.222 72.9333 38.4824 72.8096C38.7461 72.6826 39.0374 72.6191 39.3564 72.6191C39.6169 72.6191 39.8512 72.6549 40.0596 72.7266C40.2679 72.7949 40.4453 72.9056 40.5918 73.0586C40.7415 73.2116 40.8555 73.4102 40.9336 73.6543C41.0117 73.8952 41.0508 74.1898 41.0508 74.5381V78H40.1426V74.5283C40.1426 74.2516 40.1019 74.0303 40.0205 73.8643C39.9391 73.695 39.8203 73.5729 39.6641 73.498C39.5078 73.4199 39.3158 73.3809 39.0879 73.3809C38.8633 73.3809 38.6582 73.4281 38.4727 73.5225C38.2904 73.6169 38.1325 73.7471 37.999 73.9131C37.8688 74.0791 37.7663 74.2695 37.6914 74.4844C37.6198 74.696 37.584 74.9206 37.584 75.1582ZM45.5381 77.0967V74.377C45.5381 74.1686 45.4958 73.988 45.4111 73.835C45.3298 73.6787 45.2061 73.5583 45.04 73.4736C44.874 73.389 44.6689 73.3467 44.4248 73.3467C44.1969 73.3467 43.9967 73.3857 43.8242 73.4639C43.6549 73.542 43.5215 73.6445 43.4238 73.7715C43.3294 73.8984 43.2822 74.0352 43.2822 74.1816H42.3789C42.3789 73.9928 42.4277 73.8057 42.5254 73.6201C42.623 73.4346 42.763 73.2669 42.9453 73.1172C43.1309 72.9642 43.3522 72.8438 43.6094 72.7559C43.8698 72.6647 44.1595 72.6191 44.4785 72.6191C44.8626 72.6191 45.2012 72.6842 45.4941 72.8145C45.7904 72.9447 46.0215 73.1416 46.1875 73.4053C46.3568 73.6657 46.4414 73.9928 46.4414 74.3867V76.8477C46.4414 77.0234 46.4561 77.2106 46.4854 77.4092C46.5179 77.6077 46.5651 77.7786 46.627 77.9219V78H45.6846C45.639 77.8958 45.6032 77.7575 45.5771 77.585C45.5511 77.4092 45.5381 77.2464 45.5381 77.0967ZM45.6943 74.7969L45.7041 75.4316H44.791C44.5339 75.4316 44.3044 75.4528 44.1025 75.4951C43.9007 75.5342 43.7314 75.5944 43.5947 75.6758C43.458 75.7572 43.3538 75.8597 43.2822 75.9834C43.2106 76.1038 43.1748 76.2454 43.1748 76.4082C43.1748 76.5742 43.2122 76.7256 43.2871 76.8623C43.362 76.999 43.4743 77.1081 43.624 77.1895C43.777 77.2676 43.9642 77.3066 44.1855 77.3066C44.4622 77.3066 44.7064 77.248 44.918 77.1309C45.1296 77.0137 45.2972 76.8704 45.4209 76.7012C45.5479 76.5319 45.6162 76.3675 45.626 76.208L46.0117 76.6426C45.9889 76.7793 45.9271 76.9307 45.8262 77.0967C45.7253 77.2627 45.5902 77.4222 45.4209 77.5752C45.2549 77.7249 45.0563 77.8503 44.8252 77.9512C44.5973 78.0488 44.3402 78.0977 44.0537 78.0977C43.6956 78.0977 43.3815 78.0277 43.1113 77.8877C42.8444 77.7477 42.6361 77.5605 42.4863 77.3262C42.3398 77.0885 42.2666 76.8232 42.2666 76.5303C42.2666 76.2471 42.3219 75.998 42.4326 75.7832C42.5433 75.5651 42.7028 75.3844 42.9111 75.2412C43.1195 75.0947 43.3701 74.984 43.6631 74.9092C43.9561 74.8343 44.2832 74.7969 44.6445 74.7969H45.6943ZM51.2852 72.7168H52.1055V77.8877C52.1055 78.3532 52.0111 78.7503 51.8223 79.0791C51.6335 79.4079 51.3698 79.6569 51.0312 79.8262C50.696 79.9987 50.3086 80.085 49.8691 80.085C49.6868 80.085 49.472 80.0557 49.2246 79.9971C48.9805 79.9417 48.7396 79.8457 48.502 79.709C48.2676 79.5755 48.0706 79.3949 47.9111 79.167L48.3848 78.6299C48.6061 78.8968 48.8372 79.0824 49.0781 79.1865C49.3223 79.2907 49.5632 79.3428 49.8008 79.3428C50.0872 79.3428 50.3346 79.2891 50.543 79.1816C50.7513 79.0742 50.9124 78.9147 51.0264 78.7031C51.1436 78.4948 51.2021 78.2376 51.2021 77.9316V73.8789L51.2852 72.7168ZM47.6475 75.417V75.3145C47.6475 74.9108 47.6947 74.5446 47.7891 74.2158C47.8867 73.8838 48.0251 73.599 48.2041 73.3613C48.3864 73.1237 48.6061 72.9414 48.8633 72.8145C49.1204 72.6842 49.4102 72.6191 49.7324 72.6191C50.0645 72.6191 50.3542 72.6777 50.6016 72.7949C50.8522 72.9089 51.0638 73.0765 51.2363 73.2979C51.4121 73.516 51.5505 73.7796 51.6514 74.0889C51.7523 74.3981 51.8223 74.748 51.8613 75.1387V75.5879C51.8255 75.9753 51.7555 76.3236 51.6514 76.6328C51.5505 76.9421 51.4121 77.2057 51.2363 77.4238C51.0638 77.6419 50.8522 77.8096 50.6016 77.9268C50.3509 78.0407 50.0579 78.0977 49.7227 78.0977C49.4069 78.0977 49.1204 78.0309 48.8633 77.8975C48.6094 77.764 48.3913 77.5768 48.209 77.3359C48.0267 77.0951 47.8867 76.8118 47.7891 76.4863C47.6947 76.1576 47.6475 75.8011 47.6475 75.417ZM48.5508 75.3145V75.417C48.5508 75.6807 48.5768 75.9281 48.6289 76.1592C48.6842 76.3903 48.7673 76.5938 48.8779 76.7695C48.9919 76.9453 49.1367 77.0837 49.3125 77.1846C49.4883 77.2822 49.6982 77.3311 49.9424 77.3311C50.2419 77.3311 50.4893 77.2676 50.6846 77.1406C50.8799 77.0137 51.0345 76.846 51.1484 76.6377C51.2656 76.4294 51.3568 76.2031 51.4219 75.959V74.7822C51.3861 74.6032 51.3307 74.4307 51.2559 74.2646C51.1842 74.0954 51.0898 73.9456 50.9727 73.8154C50.8587 73.682 50.7171 73.5762 50.5479 73.498C50.3786 73.4199 50.18 73.3809 49.9521 73.3809C49.7048 73.3809 49.4915 73.4329 49.3125 73.5371C49.1367 73.638 48.9919 73.778 48.8779 73.957C48.7673 74.1328 48.6842 74.3379 48.6289 74.5723C48.5768 74.8034 48.5508 75.0508 48.5508 75.3145ZM55.6699 78.0977C55.3021 78.0977 54.9684 78.0358 54.6689 77.9121C54.3727 77.7852 54.1172 77.6077 53.9023 77.3799C53.6908 77.152 53.528 76.8818 53.4141 76.5693C53.3001 76.2568 53.2432 75.915 53.2432 75.5439V75.3389C53.2432 74.9092 53.3066 74.5267 53.4336 74.1914C53.5605 73.8529 53.7331 73.5664 53.9512 73.332C54.1693 73.0977 54.4167 72.9202 54.6934 72.7998C54.9701 72.6794 55.2565 72.6191 55.5527 72.6191C55.9303 72.6191 56.2559 72.6842 56.5293 72.8145C56.806 72.9447 57.0322 73.127 57.208 73.3613C57.3838 73.5924 57.514 73.8659 57.5986 74.1816C57.6833 74.4941 57.7256 74.8359 57.7256 75.207V75.6123H53.7803V74.875H56.8223V74.8066C56.8092 74.5723 56.7604 74.3444 56.6758 74.123C56.5944 73.9017 56.4642 73.7194 56.2852 73.5762C56.1061 73.4329 55.862 73.3613 55.5527 73.3613C55.3477 73.3613 55.1589 73.4053 54.9863 73.4932C54.8138 73.5778 54.6657 73.7048 54.542 73.874C54.4183 74.0433 54.3223 74.25 54.2539 74.4941C54.1855 74.7383 54.1514 75.0199 54.1514 75.3389V75.5439C54.1514 75.7946 54.1855 76.0306 54.2539 76.252C54.3255 76.4701 54.4281 76.6621 54.5615 76.8281C54.6982 76.9941 54.8626 77.1243 55.0547 77.2188C55.25 77.3132 55.4714 77.3604 55.7188 77.3604C56.0378 77.3604 56.3079 77.2952 56.5293 77.165C56.7507 77.0348 56.9443 76.8607 57.1104 76.6426L57.6572 77.0771C57.5433 77.2497 57.3984 77.4141 57.2227 77.5703C57.0469 77.7266 56.8304 77.8535 56.5732 77.9512C56.3193 78.0488 56.0182 78.0977 55.6699 78.0977ZM59.6787 73.7666V78H58.7705V72.7168H59.6299L59.6787 73.7666ZM59.4932 75.1582L59.0732 75.1436C59.0765 74.7822 59.1237 74.4486 59.2148 74.1426C59.306 73.8333 59.4411 73.5648 59.6201 73.3369C59.7992 73.109 60.0221 72.9333 60.2891 72.8096C60.556 72.6826 60.8652 72.6191 61.2168 72.6191C61.4642 72.6191 61.6921 72.6549 61.9004 72.7266C62.1087 72.7949 62.2894 72.904 62.4424 73.0537C62.5954 73.2035 62.7142 73.3955 62.7988 73.6299C62.8835 73.8643 62.9258 74.1475 62.9258 74.4795V78H62.0225V74.5234C62.0225 74.2467 61.9753 74.0254 61.8809 73.8594C61.7897 73.6934 61.6595 73.5729 61.4902 73.498C61.321 73.4199 61.1224 73.3809 60.8945 73.3809C60.6276 73.3809 60.4046 73.4281 60.2256 73.5225C60.0465 73.6169 59.9033 73.7471 59.7959 73.9131C59.6885 74.0791 59.6104 74.2695 59.5615 74.4844C59.516 74.696 59.4932 74.9206 59.4932 75.1582ZM62.916 74.6602L62.3105 74.8457C62.3138 74.556 62.361 74.2777 62.4521 74.0107C62.5465 73.7438 62.6816 73.5062 62.8574 73.2979C63.0365 73.0895 63.2562 72.9251 63.5166 72.8047C63.777 72.681 64.0749 72.6191 64.4102 72.6191C64.6934 72.6191 64.944 72.6566 65.1621 72.7314C65.3835 72.8063 65.569 72.9219 65.7188 73.0781C65.8717 73.2311 65.9873 73.4281 66.0654 73.6689C66.1436 73.9098 66.1826 74.1963 66.1826 74.5283V78H65.2744V74.5186C65.2744 74.2223 65.2272 73.9928 65.1328 73.8301C65.0417 73.6641 64.9115 73.5485 64.7422 73.4834C64.5762 73.415 64.3776 73.3809 64.1465 73.3809C63.9479 73.3809 63.7721 73.415 63.6191 73.4834C63.4661 73.5518 63.3376 73.6462 63.2334 73.7666C63.1292 73.8838 63.0495 74.0189 62.9941 74.1719C62.9421 74.3249 62.916 74.4876 62.916 74.6602ZM69.7422 78.0977C69.3743 78.0977 69.0407 78.0358 68.7412 77.9121C68.445 77.7852 68.1895 77.6077 67.9746 77.3799C67.763 77.152 67.6003 76.8818 67.4863 76.5693C67.3724 76.2568 67.3154 75.915 67.3154 75.5439V75.3389C67.3154 74.9092 67.3789 74.5267 67.5059 74.1914C67.6328 73.8529 67.8053 73.5664 68.0234 73.332C68.2415 73.0977 68.4889 72.9202 68.7656 72.7998C69.0423 72.6794 69.3288 72.6191 69.625 72.6191C70.0026 72.6191 70.3281 72.6842 70.6016 72.8145C70.8783 72.9447 71.1045 73.127 71.2803 73.3613C71.4561 73.5924 71.5863 73.8659 71.6709 74.1816C71.7555 74.4941 71.7979 74.8359 71.7979 75.207V75.6123H67.8525V74.875H70.8945V74.8066C70.8815 74.5723 70.8327 74.3444 70.748 74.123C70.6667 73.9017 70.5365 73.7194 70.3574 73.5762C70.1784 73.4329 69.9342 73.3613 69.625 73.3613C69.4199 73.3613 69.2311 73.4053 69.0586 73.4932C68.8861 73.5778 68.738 73.7048 68.6143 73.874C68.4906 74.0433 68.3945 74.25 68.3262 74.4941C68.2578 74.7383 68.2236 75.0199 68.2236 75.3389V75.5439C68.2236 75.7946 68.2578 76.0306 68.3262 76.252C68.3978 76.4701 68.5003 76.6621 68.6338 76.8281C68.7705 76.9941 68.9349 77.1243 69.127 77.2188C69.3223 77.3132 69.5436 77.3604 69.791 77.3604C70.11 77.3604 70.3802 77.2952 70.6016 77.165C70.8229 77.0348 71.0166 76.8607 71.1826 76.6426L71.7295 77.0771C71.6156 77.2497 71.4707 77.4141 71.2949 77.5703C71.1191 77.7266 70.9027 77.8535 70.6455 77.9512C70.3916 78.0488 70.0905 78.0977 69.7422 78.0977ZM73.7559 73.8447V78H72.8525V72.7168H73.707L73.7559 73.8447ZM73.541 75.1582L73.165 75.1436C73.1683 74.7822 73.222 74.4486 73.3262 74.1426C73.4303 73.8333 73.5768 73.5648 73.7656 73.3369C73.9544 73.109 74.179 72.9333 74.4395 72.8096C74.7031 72.6826 74.9945 72.6191 75.3135 72.6191C75.5739 72.6191 75.8083 72.6549 76.0166 72.7266C76.2249 72.7949 76.4023 72.9056 76.5488 73.0586C76.6986 73.2116 76.8125 73.4102 76.8906 73.6543C76.9688 73.8952 77.0078 74.1898 77.0078 74.5381V78H76.0996V74.5283C76.0996 74.2516 76.0589 74.0303 75.9775 73.8643C75.8962 73.695 75.7773 73.5729 75.6211 73.498C75.4648 73.4199 75.2728 73.3809 75.0449 73.3809C74.8203 73.3809 74.6152 73.4281 74.4297 73.5225C74.2474 73.6169 74.0895 73.7471 73.9561 73.9131C73.8258 74.0791 73.7233 74.2695 73.6484 74.4844C73.5768 74.696 73.541 74.9206 73.541 75.1582ZM80.5918 72.7168V73.4102H77.7354V72.7168H80.5918ZM78.7021 71.4326H79.6055V76.6914C79.6055 76.8704 79.6331 77.0055 79.6885 77.0967C79.7438 77.1878 79.8154 77.248 79.9033 77.2773C79.9912 77.3066 80.0856 77.3213 80.1865 77.3213C80.2614 77.3213 80.3395 77.3148 80.4209 77.3018C80.5055 77.2855 80.569 77.2725 80.6113 77.2627L80.6162 78C80.5446 78.0228 80.4502 78.0439 80.333 78.0635C80.2191 78.0863 80.0807 78.0977 79.918 78.0977C79.6966 78.0977 79.4932 78.0537 79.3076 77.9658C79.1221 77.8779 78.974 77.7314 78.8633 77.5264C78.7559 77.318 78.7021 77.0381 78.7021 76.6865V71.4326Z" fill="black"/>
<defs>
<clipPath id="clip0_1_1682">
<rect width="39" height="39" fill="white" transform="translate(32 8)"/>
</clipPath>
</defs>
</svg>
